<?xml version="1.0" encoding="UTF-8"?>
<!DOCTYPE svg PUBLIC "-//W3C//DTD SVG 1.1//EN" "http://www.w3.org/Graphics/SVG/1.1/DTD/svg11.dtd">
<svg version="1.1" xmlns="http://www.w3.org/2000/svg" xmlns:xlink="http://www.w3.org/1999/xlink" x="0" y="0" width="144" height="144" viewBox="0, 0, 144, 144">
  <g id="Background">
    <rect x="0" y="0" width="144" height="144" fill="#000000" fill-opacity="0"/>
  </g>
  <defs>
    <linearGradient id="Gradient_1" gradientUnits="userSpaceOnUse" x1="57.13" y1="45.01" x2="77.14" y2="33.46">
      <stop offset="0" stop-color="#A66B2A"/>
      <stop offset="0.31" stop-color="#E19238"/>
      <stop offset="1" stop-color="#EDAE45"/>
    </linearGradient>
    <linearGradient id="Gradient_2" gradientUnits="userSpaceOnUse" x1="67.81" y1="98.11" x2="97.72" y2="80.84">
      <stop offset="0" stop-color="#EDAE45"/>
      <stop offset="0.69" stop-color="#E19238"/>
      <stop offset="1" stop-color="#A66B2A"/>
    </linearGradient>
    <linearGradient id="Gradient_3" gradientUnits="userSpaceOnUse" x1="44.6" y1="60.17" x2="98.78" y2="60.17">
      <stop offset="0" stop-color="#006A92"/>
      <stop offset="0.25" stop-color="#1C89B8"/>
      <stop offset="0.62" stop-color="#1C89B8"/>
      <stop offset="1" stop-color="#59A5CE"/>
    </linearGradient>
  </defs>
  <g id="Background" display="none"/>
  <g id="Background" display="none">
    <g>
      <path d="M12,0 L12,144" fill="#000000"/>
      <path d="M12,0 L12,144" fill-opacity="0" stroke="#AAAAAA" stroke-width="1" stroke-opacity="0.25"/>
    </g>
    <g>
      <path d="M24,0 L24,144" fill="#000000"/>
      <path d="M24,0 L24,144" fill-opacity="0" stroke="#AAAAAA" stroke-width="1" stroke-opacity="0.25"/>
    </g>
    <g>
      <path d="M36,0 L36,144" fill="#000000"/>
      <path d="M36,0 L36,144" fill-opacity="0" stroke="#AAAAAA" stroke-width="1" stroke-opacity="0.25"/>
    </g>
    <g>
      <path d="M48,0 L48,144" fill="#000000"/>
      <path d="M48,0 L48,144" fill-opacity="0" stroke="#AAAAAA" stroke-width="1" stroke-opacity="0.25"/>
    </g>
    <g>
      <path d="M60,0 L60,144" fill="#000000"/>
      <path d="M60,0 L60,144" fill-opacity="0" stroke="#AAAAAA" stroke-width="1" stroke-opacity="0.25"/>
    </g>
    <g>
      <path d="M72,0 L72,144" fill="#000000"/>
      <path d="M72,0 L72,144" fill-opacity="0" stroke="#AAAAAA" stroke-width="1" stroke-opacity="0.5"/>
    </g>
    <g>
      <path d="M84,0 L84,144" fill="#000000"/>
      <path d="M84,0 L84,144" fill-opacity="0" stroke="#AAAAAA" stroke-width="1" stroke-opacity="0.25"/>
    </g>
    <g>
      <path d="M96,0 L96,144" fill="#000000"/>
      <path d="M96,0 L96,144" fill-opacity="0" stroke="#AAAAAA" stroke-width="1" stroke-opacity="0.25"/>
    </g>
    <g>
      <path d="M108,0 L108,144" fill="#000000"/>
      <path d="M108,0 L108,144" fill-opacity="0" stroke="#AAAAAA" stroke-width="1" stroke-opacity="0.25"/>
    </g>
    <g>
      <path d="M120,0 L120,144" fill="#000000"/>
      <path d="M120,0 L120,144" fill-opacity="0" stroke="#AAAAAA" stroke-width="1" stroke-opacity="0.25"/>
    </g>
    <g>
      <path d="M132,0 L132,144" fill="#000000"/>
      <path d="M132,0 L132,144" fill-opacity="0" stroke="#AAAAAA" stroke-width="1" stroke-opacity="0.25"/>
    </g>
    <g>
      <path d="M144,0 L144,144" fill="#000000"/>
      <path d="M144,0 L144,144" fill-opacity="0" stroke="#AAAAAA" stroke-width="1" stroke-opacity="0.25"/>
    </g>
    <g>
      <path d="M0,12 L144,12" fill="#000000"/>
      <path d="M0,12 L144,12" fill-opacity="0" stroke="#AAAAAA" stroke-width="1" stroke-opacity="0.25"/>
    </g>
    <g>
      <path d="M0,24 L144,24" fill="#000000"/>
      <path d="M0,24 L144,24" fill-opacity="0" stroke="#AAAAAA" stroke-width="1" stroke-opacity="0.25"/>
    </g>
    <g>
      <path d="M0,36 L144,36" fill="#000000"/>
      <path d="M0,36 L144,36" fill-opacity="0" stroke="#AAAAAA" stroke-width="1" stroke-opacity="0.25"/>
    </g>
    <g>
      <path d="M0,48 L144,48" fill="#000000"/>
      <path d="M0,48 L144,48" fill-opacity="0" stroke="#AAAAAA" stroke-width="1" stroke-opacity="0.25"/>
    </g>
    <g>
      <path d="M0,60 L144,60" fill="#000000"/>
      <path d="M0,60 L144,60" fill-opacity="0" stroke="#AAAAAA" stroke-width="1" stroke-opacity="0.25"/>
    </g>
    <g>
      <path d="M0,72 L144,72" fill="#000000"/>
      <path d="M0,72 L144,72" fill-opacity="0" stroke="#AAAAAA" stroke-width="1" stroke-opacity="0.5"/>
    </g>
    <g>
      <path d="M0,84 L144,84" fill="#000000"/>
      <path d="M0,84 L144,84" fill-opacity="0" stroke="#AAAAAA" stroke-width="1" stroke-opacity="0.25"/>
    </g>
    <g>
      <path d="M0,96 L144,96" fill="#000000"/>
      <path d="M0,96 L144,96" fill-opacity="0" stroke="#AAAAAA" stroke-width="1" stroke-opacity="0.25"/>
    </g>
    <g>
      <path d="M0,108 L144,108" fill="#000000"/>
      <path d="M0,108 L144,108" fill-opacity="0" stroke="#AAAAAA" stroke-width="1" stroke-opacity="0.25"/>
    </g>
    <g>
      <path d="M0,120 L144,120" fill="#000000"/>
      <path d="M0,120 L144,120" fill-opacity="0" stroke="#AAAAAA" stroke-width="1" stroke-opacity="0.25"/>
    </g>
    <g>
      <path d="M0,132 L144,132" fill="#000000"/>
      <path d="M0,132 L144,132" fill-opacity="0" stroke="#AAAAAA" stroke-width="1" stroke-opacity="0.25"/>
    </g>
    <g>
      <path d="M0,144 L144,144" fill="#000000"/>
      <path d="M0,144 L144,144" fill-opacity="0" stroke="#AAAAAA" stroke-width="1" stroke-opacity="0.25"/>
    </g>
  </g>
  <g id="Underlay-Autocad_3">
    <path d="M13.65,105.69 L13.65,38.31 L72,4.62 L130.35,38.31 L130.35,105.69 L72,139.38 L13.65,105.69 z" fill="#222021"/>
    <path d="M72,9.24 L126.35,40.62 L126.35,103.38 L72,134.76 L17.65,103.38 L17.65,40.62 L72,9.24 M72,0 L9.65,36 L9.65,108 L72,144 L134.35,108 L134.35,36 L72,0 z" fill="#EDAE45"/>
    <g>
      <text transform="matrix(1.02, 0, 0, 1, 55.926, 114.78)">
        <tspan x="-4.143" y="4.5" font-family="Montserrat-Regular" font-size="14.4" kerning="-0.069" fill="#EDAE45">s</tspan>
      </text>
      <text transform="matrix(1.02, 0, 0, 1, 62.645, 114.78)">
        <tspan x="-3.51" y="4.5" font-family="Montserrat-Regular" font-size="14.4" kerning="-0.23" fill="#EDAE45">t</tspan>
      </text>
      <text transform="matrix(1.02, 0, 0, 1, 70.416, 114.78)">
        <tspan x="-5.338" y="4.5" font-family="Montserrat-Regular" font-size="14.4" kerning="-0.07" fill="#EDAE45">d</tspan>
      </text>
      <text transform="matrix(1.02, 0, 0, 1, 79.266, 114.78)">
        <tspan x="-4.416" y="4.5" font-family="Montserrat-Regular" font-size="14.4" kerning="-0.06" fill="#59A5CE">li</tspan>
      </text>
      <text transform="matrix(1.02, 0, 0, 1, 88.143, 114.78)">
        <tspan x="-5.338" y="4.5" font-family="Montserrat-Regular" font-size="14.4" fill="#59A5CE">b</tspan>
      </text>
    </g>
    <path d="M72,24.55 L59.63,31.69 C58.055,32.595 56.691,33.825 55.63,35.3 C54.099,37.404 54.099,40.256 55.63,42.36 C56.69,43.836 58.054,45.067 59.63,45.97 L67.84,50.71 C66.025,49.39 64.897,47.326 64.766,45.086 C64.634,42.845 65.513,40.664 67.16,39.14 C71.784,35.854 73.743,29.948 72,24.55 z" fill="url(#Gradient_1)"/>
    <path d="M95.69,79.25 L89.69,75.79 C91.431,76.764 92.492,78.619 92.448,80.613 C92.404,82.607 91.262,84.414 89.48,85.31 L76.69,92.7 C73.864,94.24 72.076,97.172 72,100.39 L72,105.39 L95.95,91.55 C98.074,90.202 99.34,87.842 99.287,85.327 C99.234,82.811 97.87,80.507 95.69,79.25 z" fill="url(#Gradient_2)"/>
    <path d="M49,82.12 C46.26,80.424 44.603,77.423 44.628,74.201 C44.652,70.979 46.355,68.004 49.12,66.35 L40.25,71.47 C37.479,73.081 35.775,76.045 35.775,79.25 C35.775,82.455 37.479,85.419 40.25,87.03 L48.08,91.55 L72,105.37 L72,100.37 C71.924,97.152 70.136,94.22 67.31,92.68 L54.5,85.31 C54.328,85.215 54.161,85.112 54,85 z" fill="#59A5CE"/>
    <path d="M82.78,59.34 L94.28,52.7 C97.056,51.09 98.764,48.124 98.764,44.915 C98.764,41.706 97.056,38.74 94.28,37.13 L91.15,35.32 C92.206,38.195 91.294,41.423 88.89,43.32 L72,53.12 L49.1,66.34 C46.332,67.996 44.63,70.977 44.609,74.202 C44.589,77.427 46.254,80.429 49,82.12 L54,85 C52.441,83.982 51.518,82.231 51.559,80.369 C51.599,78.508 52.598,76.799 54.2,75.85 z" fill="url(#Gradient_3)"/>
    <path d="M59.63,46 C58.054,45.097 56.69,43.866 55.63,42.39 C54.099,40.286 54.099,37.434 55.63,35.33 C56.691,33.855 58.055,32.625 59.63,31.72 L50.2,37.14 C47.435,38.794 45.732,41.769 45.708,44.991 C45.683,48.213 47.34,51.214 50.08,52.91 L95.69,79.25 C97.87,80.507 99.234,82.811 99.287,85.327 C99.34,87.842 98.074,90.202 95.95,91.55 L103.77,87 C106.541,85.389 108.245,82.425 108.245,79.22 C108.245,76.015 106.541,73.051 103.77,71.44 z" fill="#EDAE45"/>
  </g>
</svg>
